# xmcd
#
# Track frame offsets: 
#        150
#        22167
#        42741
#        62762
#        85575
#        107123
#        123116
#        151961
#        173024
#        195698
#
# Disc length: 3394 seconds
#
# Revision: 0
# Processed by: cddbd v1.5.2PL0 Copyright (c) Steve Scherf et al.
# Submitted via: ExactAudioCopy v0.95b4
#
DISCID=7f0d400a
DTITLE=Mauricio Sahady - Vício Valvulado
DYEAR=1900
DGENRE=Blues
TTITLE0=Mulher Brasil
TTITLE1=Vem Brincar
TTITLE2=Curiosa Mente
TTITLE3=Love Her with a Feeling
TTITLE4=Olhar Vulpino
TTITLE5=Rio de Janeiro Slim's Jump
TTITLE6=Difícil Dizer
TTITLE7=Sem o teu amor
TTITLE8=Shuffle do Sahady
TTITLE9=Senhor!
EXTD=
EXTT0=
EXTT1=
EXTT2=
EXTT3=
EXTT4=
EXTT5=
EXTT6=
EXTT7=
EXTT8=
EXTT9=
PLAYORDER=
